<?xml version="1.0" standalone="no"?>
<!DOCTYPE svg PUBLIC "-//W3C//DTD SVG 20010904//EN"
 "http://www.w3.org/TR/2001/REC-SVG-20010904/DTD/svg10.dtd">
<svg version="1.0" xmlns="http://www.w3.org/2000/svg"
 width="686.000000pt" height="685.000000pt" viewBox="0 0 686.000000 685.000000"
 preserveAspectRatio="xMidYMid meet">

<g transform="translate(0.000000,685.000000) scale(0.100000,-0.100000)"
fill="#000000" stroke="none">
<path d="M3235 6829 c-278 -22 -427 -46 -655 -105 -300 -78 -565 -185 -849
-343 -311 -174 -681 -481 -902 -751 -30 -36 -56 -67 -59 -70 -3 -3 -18 -23
-35 -45 -16 -22 -32 -42 -36 -45 -3 -3 -36 -49 -73 -103 -214 -314 -340 -574
-451 -932 -70 -225 -104 -389 -137 -645 -17 -136 -17 -609 0 -750 84 -683 329
-1264 750 -1775 73 -87 69 -84 193 -211 544 -559 1223 -902 1999 -1009 552
-76 1122 -10 1655 191 289 109 684 332 891 503 17 14 51 42 75 61 222 177 488
470 671 740 508 751 686 1696 488 2603 -140 643 -455 1220 -915 1682 -311 312
-634 532 -1070 730 -118 54 -379 141 -538 181 -198 49 -333 69 -582 89 -196
16 -267 17 -420 4z m390 -584 c612 -33 1259 -314 1719 -745 108 -101 219 -219
277 -295 13 -16 26 -32 29 -35 13 -12 112 -152 162 -230 212 -328 353 -703
414 -1100 21 -134 30 -550 15 -692 -68 -653 -349 -1244 -810 -1707 -402 -404
-842 -650 -1381 -774 -240 -56 -304 -62 -625 -62 -329 0 -408 9 -670 75 -183
46 -270 75 -426 141 -478 202 -891 539 -1225 999 -87 119 -236 391 -284 517
-152 398 -199 622 -207 994 -11 468 44 781 204 1174 166 409 464 813 813 1102
387 320 870 537 1365 613 131 21 365 38 445 34 41 -2 125 -6 185 -9z"/>
<path d="M2708 5447 c-103 -157 -194 -289 -338 -492 -58 -82 -136 -194 -173
-247 l-66 -97 52 -32 c49 -30 65 -40 151 -88 19 -11 53 -31 75 -45 22 -15 42
-26 44 -26 3 0 98 -55 213 -123 115 -68 216 -127 224 -131 8 -4 24 -12 35 -19
25 -15 209 -125 250 -149 17 -10 51 -29 76 -42 l47 -25 83 122 c116 171 227
334 264 387 201 287 323 479 312 487 -6 6 -68 40 -137 78 -69 37 -150 82 -180
100 -30 18 -75 44 -100 57 -109 61 -201 113 -287 165 -40 24 -75 43 -77 43 -4
0 -104 57 -272 156 -51 30 -96 54 -100 54 -5 0 -48 -60 -96 -133z"/>
<path d="M2920 5576 c0 -2 35 -23 78 -47 127 -70 146 -80 174 -100 14 -11 29
-19 32 -19 2 0 31 -15 63 -34 32 -18 78 -44 103 -58 25 -14 92 -52 150 -85 58
-33 130 -74 160 -90 81 -44 124 -69 169 -97 22 -15 43 -26 45 -26 2 0 30 -15
63 -33 34 -20 126 -52 228 -81 94 -27 223 -63 287 -82 65 -19 123 -34 130 -34
7 0 -18 18 -57 39 -38 21 -113 64 -165 96 -52 32 -124 75 -160 95 -36 20 -94
54 -130 75 -122 70 -135 78 -190 108 -30 17 -84 48 -120 70 -36 22 -81 49
-100 60 -128 74 -124 73 -400 148 -80 21 -188 52 -241 69 -91 29 -119 35 -119
26z"/>
<path d="M3949 4793 c-35 -54 -67 -102 -72 -108 -4 -5 -66 -95 -137 -200 -72
-104 -136 -199 -144 -210 -8 -11 -30 -42 -48 -70 -109 -160 -174 -254 -194
-281 l-24 -31 0 -496 c0 -274 3 -497 8 -497 4 0 16 6 27 14 11 7 45 27 75 43
54 30 269 153 640 368 102 58 292 168 423 243 l237 136 0 493 c0 459 -1 493
-17 501 -10 6 -103 33 -208 62 -104 29 -210 58 -235 65 -117 33 -241 65 -254
65 -7 0 -42 -44 -77 -97z"/>
<path d="M2109 4546 c-2 -2 -3 -223 -1 -489 l2 -485 48 -28 c55 -33 55 -33
253 -148 85 -49 217 -126 294 -172 77 -45 160 -93 185 -107 25 -13 97 -55 160
-92 157 -92 218 -124 224 -117 3 3 6 220 6 482 0 442 -1 478 -17 492 -17 14
-191 118 -483 288 -285 166 -361 211 -480 281 -176 104 -180 106 -191 95z"/>
<path d="M2517 2694 c-10 -10 -9 -62 1 -68 5 -3 26 -3 46 1 34 5 37 8 34 37
-3 28 -7 31 -38 34 -20 2 -39 0 -43 -4z"/>
<path d="M1187 2683 c-3 -5 -4 -105 -3 -223 l2 -215 39 0 40 0 -1 143 c-1 102
2 142 10 139 6 -2 27 -46 47 -98 l36 -94 41 -3 c39 -3 40 -3 57 45 33 89 65
156 73 149 4 -4 7 -69 7 -144 l0 -137 40 0 40 0 0 220 0 220 -55 0 -55 0 -48
-122 c-27 -68 -52 -123 -56 -123 -4 0 -30 56 -57 125 l-49 125 -52 0 c-28 0
-54 -3 -56 -7z"/>
<path d="M2090 2465 l0 -225 40 0 40 0 0 225 0 225 -40 0 -40 0 0 -225z"/>
<path d="M2278 2608 c-2 -36 -7 -44 -25 -46 -18 -3 -23 -10 -23 -32 0 -22 5
-29 23 -32 21 -3 22 -8 27 -108 3 -58 9 -111 13 -118 18 -27 69 -44 113 -37
40 6 44 9 44 36 0 25 -4 29 -29 29 -51 0 -62 22 -59 114 l3 81 35 3 c43 4 54
14 45 41 -5 16 -15 21 -40 21 -28 0 -36 5 -41 24 -3 13 -4 32 -2 42 2 16 -4
20 -39 22 l-42 3 -3 -43z"/>
<path d="M1719 2428 c1 -73 7 -141 13 -151 11 -21 66 -47 100 -47 13 0 36 7
52 15 26 14 33 14 62 0 62 -29 66 -21 60 154 l-5 156 -36 3 c-19 2 -35 0 -36
-5 0 -4 -1 -51 -3 -103 -2 -103 -14 -135 -54 -145 -14 -3 -34 0 -48 10 -22 14
-24 22 -26 128 l-3 112 -40 3 -40 3 4 -133z"/>
<path d="M2519 2453 c-1 -60 -1 -130 -1 -158 l0 -50 38 0 39 0 3 158 3 157
-41 0 -40 0 -1 -107z"/>
<path d="M2770 2140 c-8 -5 -12 -12 -9 -15 4 -3 12 1 19 10 14 17 11 19 -10 5z"/>
<path d="M1536 2118 c-8 -30 -7 -117 0 -146 6 -21 11 -23 62 -20 49 3 58 6 71
30 14 24 14 28 -3 46 -14 16 -15 25 -7 41 24 44 -1 71 -69 71 -41 0 -49 -3
-54 -22z m108 -10 c18 -29 -4 -53 -50 -53 -33 0 -39 3 -42 23 -6 41 5 53 44
50 22 -2 42 -10 48 -20z m4 -80 c33 -33 -3 -72 -61 -66 -25 2 -33 8 -35 26 -6
40 5 52 46 52 21 0 43 -5 50 -12z"/>
<path d="M3370 2125 c-14 -17 -5 -85 12 -85 11 0 55 -52 50 -58 -3 -4 46 -32
55 -32 3 0 0 7 -7 15 -7 9 -10 26 -5 42 5 23 4 26 -6 16 -20 -19 -34 -16 -49
12 -7 14 -19 25 -26 25 -17 0 -27 49 -13 66 6 8 9 14 6 14 -2 0 -10 -7 -17
-15z"/>
<path d="M3418 2128 c5 -7 12 -22 14 -33 4 -18 6 -18 12 -3 5 11 2 23 -7 33
-19 18 -34 20 -19 3z"/>
<path d="M3688 2130 c19 -4 39 -13 45 -19 6 -6 16 -11 22 -11 5 0 -1 9 -15 20
-14 11 -38 19 -55 19 l-30 -1 33 -8z"/>
<path d="M3620 2110 c0 -5 5 -10 10 -10 6 0 10 5 10 10 0 6 -4 10 -10 10 -5 0
-10 -4 -10 -10z"/>
<path d="M4289 2105 c-2 -27 3 -111 10 -147 0 -5 9 -8 19 -8 11 0 13 3 5 8
-13 8 -20 92 -9 110 4 7 0 22 -8 34 -15 21 -16 21 -17 3z"/>
<path d="M1848 2083 c7 -3 16 -2 19 1 4 3 -2 6 -13 5 -11 0 -14 -3 -6 -6z"/>
<path d="M2025 2074 c14 -10 22 -31 26 -72 l6 -57 2 59 c1 45 -3 62 -16 72
-10 7 -22 13 -28 13 -5 0 -1 -6 10 -15z"/>
<path d="M2132 2067 c-44 -46 -17 -117 44 -117 19 0 34 4 34 8 0 5 -13 7 -28
4 -32 -4 -58 19 -48 43 4 10 19 15 51 15 47 0 59 16 31 39 -11 9 -14 8 -12 -6
1 -14 -8 -19 -36 -21 -28 -2 -38 1 -38 11 0 17 18 33 45 40 19 5 19 5 -1 6
-11 0 -30 -9 -42 -22z"/>
<path d="M2285 2074 c-22 -22 -15 -36 28 -57 25 -13 37 -25 37 -40 0 -16 3
-18 11 -10 18 18 3 41 -36 57 -42 18 -45 46 -5 57 23 6 23 7 3 8 -12 1 -29 -6
-38 -15z"/>
<path d="M2668 2080 c6 -8 12 -22 12 -31 0 -10 -6 -20 -12 -22 -10 -4 -10 -6
0 -6 18 -1 15 -48 -4 -55 -45 -17 -80 8 -54 39 11 13 10 14 -4 9 -9 -3 -16
-17 -16 -30 0 -26 19 -34 77 -32 l33 1 -1 53 c-1 41 -6 57 -23 71 -11 10 -15
11 -8 3z"/>
<path d="M2885 2080 c28 -12 37 -12 30 0 -3 6 -16 10 -28 9 -21 0 -21 -1 -2
-9z"/>
<path d="M3603 2075 c-9 -25 6 -77 29 -102 15 -16 33 -23 58 -23 39 0 80 23
67 37 -5 4 -15 0 -22 -10 -9 -13 -23 -17 -46 -15 -41 4 -73 45 -72 93 1 37 -4
45 -14 20z"/>
<path d="M3837 2079 c-25 -15 -40 -56 -27 -77 7 -14 9 -11 10 15 0 22 8 38 26
52 28 22 22 28 -9 10z"/>
<path d="M4048 2074 c18 -12 22 -25 22 -70 0 -30 5 -54 10 -54 6 0 10 24 10
53 0 55 -19 87 -51 87 -8 0 -5 -6 9 -16z"/>
<path d="M4425 2080 c-4 -6 -16 -8 -27 -4 -17 5 -20 3 -15 -11 4 -9 8 -40 8
-68 l2 -52 6 54 c5 35 13 58 26 67 10 8 16 16 13 20 -3 3 -9 0 -13 -6z"/>
<path d="M4822 2067 c-26 -27 -28 -65 -6 -93 15 -19 16 -19 9 1 -18 50 -17 64
8 89 15 14 23 26 18 26 -4 0 -17 -10 -29 -23z"/>
<path d="M5250 2080 c0 -5 5 -10 11 -10 5 0 7 5 4 10 -3 6 -8 10 -11 10 -2 0
-4 -4 -4 -10z"/>
<path d="M1729 2058 c-2 -35 2 -102 7 -107 2 -2 4 26 4 62 0 37 -2 67 -5 67
-3 0 -6 -10 -6 -22z"/>
<path d="M1801 2052 c-22 -53 6 -108 51 -99 21 4 20 4 -4 6 -20 1 -29 7 -32
24 -7 40 -5 71 6 84 6 8 7 13 0 13 -5 0 -15 -13 -21 -28z"/>
<path d="M2491 2013 c2 -66 2 -67 10 -23 4 25 9 54 11 64 2 10 -3 21 -9 23
-10 4 -13 -13 -12 -64z"/>
<path d="M2832 2068 c-19 -19 -15 -82 6 -101 19 -18 67 -23 76 -9 3 5 -8 7
-23 4 -50 -7 -80 61 -44 100 18 20 4 25 -15 6z"/>
<path d="M2978 2058 c-12 -14 -15 -30 -12 -47 7 -28 34 -63 34 -44 0 7 -4 14
-10 18 -5 3 -7 12 -3 20 3 10 20 15 49 15 36 0 44 3 44 19 0 10 -8 25 -17 32
-15 11 -16 11 -5 -1 23 -27 14 -40 -29 -40 -39 0 -41 1 -35 25 8 30 6 31 -16
3z"/>
<path d="M3134 2065 c-8 -19 13 -45 34 -45 13 0 11 4 -5 15 -13 9 -20 22 -17
30 4 8 3 15 0 15 -4 0 -9 -7 -12 -15z"/>
<path d="M3890 2073 c0 -5 7 -17 15 -27 19 -25 19 -50 0 -66 -8 -7 -15 -18
-15 -24 1 -6 10 0 20 13 24 28 26 74 4 95 -17 18 -24 20 -24 9z"/>
<path d="M3980 2015 c0 -73 16 -82 18 -10 1 25 3 50 5 57 1 6 -4 13 -10 15
-10 3 -13 -13 -13 -62z"/>
<path d="M4492 2034 c-2 -57 12 -84 41 -83 15 0 17 2 7 6 -24 9 -30 25 -30 76
0 61 -17 62 -18 1z"/>
<path d="M4590 2050 c-1 -19 -4 -40 -4 -46 -1 -6 -7 -18 -14 -26 -10 -13 -10
-17 4 -22 24 -9 25 -5 21 65 -2 41 -4 52 -7 29z"/>
<path d="M4661 2062 c-20 -37 -13 -79 15 -101 32 -25 35 -25 60 -6 18 13 16
14 -16 9 -31 -5 -37 -2 -50 21 -11 21 -12 32 -2 57 13 37 9 49 -7 20z"/>
<path d="M4885 2070 c3 -5 8 -10 11 -10 2 0 4 5 4 10 0 6 -5 10 -11 10 -5 0
-7 -4 -4 -10z"/>
<path d="M5110 2060 c21 -21 28 -80 10 -80 -5 0 -10 -5 -10 -12 0 -8 6 -6 17
4 30 30 13 108 -23 108 -10 0 -8 -6 6 -20z"/>
<path d="M5190 2019 c0 -34 3 -59 7 -55 4 3 8 14 8 24 1 9 4 32 6 51 3 22 -1
36 -8 38 -10 4 -13 -12 -13 -58z"/>
<path d="M1886 2053 c5 -18 1 -22 -23 -26 -28 -4 -28 -4 4 -6 38 -1 47 10 28
35 -13 18 -14 18 -9 -3z"/>
<path d="M1961 2008 c1 -72 5 -68 12 10 2 28 0 52 -4 52 -5 0 -9 -28 -8 -62z"/>
<path d="M2759 2043 c-3 -16 -1 -44 2 -63 5 -28 7 -23 8 28 1 65 -4 82 -10 35z"/>
<path d="M5026 2055 c-3 -9 -6 -26 -5 -38 1 -14 4 -9 9 13 9 37 7 52 -4 25z"/>
<path d="M5281 2053 c0 -10 4 -36 8 -58 l9 -40 1 52 c0 28 -3 55 -9 58 -5 3
-10 -2 -9 -12z"/>
<path d="M4140 2054 c0 -18 15 -31 45 -41 43 -14 42 -48 -2 -48 -18 0 -33 -3
-33 -7 0 -15 58 -8 74 8 19 19 5 54 -21 54 -9 0 -27 10 -40 22 -13 12 -23 17
-23 12z"/>
<path d="M4962 2010 c0 -19 2 -27 5 -17 2 9 2 25 0 35 -3 9 -5 1 -5 -18z"/>
<path d="M3342 1998 c2 -17 9 -33 16 -36 11 -3 12 0 3 16 -6 11 -8 28 -5 36 3
9 1 16 -6 16 -7 0 -10 -12 -8 -32z"/>
<path d="M3199 2007 c19 -23 7 -45 -26 -50 -28 -4 -28 -4 3 -6 54 -2 72 51 23
68 -12 4 -12 2 0 -12z"/>
<path d="M5030 1980 c0 -5 5 -10 11 -10 5 0 7 5 4 10 -3 6 -8 10 -11 10 -2 0
-4 -4 -4 -10z"/>
<path d="M4865 1960 c-19 -8 -19 -9 2 -9 12 -1 25 4 28 9 7 12 -2 12 -30 0z"/>
<path d="M2303 1953 c9 -2 23 -2 30 0 6 3 -1 5 -18 5 -16 0 -22 -2 -12 -5z"/>
<path d="M3388 1953 c6 -2 18 -2 25 0 6 3 1 5 -13 5 -14 0 -19 -2 -12 -5z"/>
</g>
</svg>
