<svg version="1.2" xmlns="http://www.w3.org/2000/svg" viewBox="0 0 800 800" width="800" height="800">
	<style>
		.s0 { fill: #3a302a } 
		.s1 { opacity: 1;fill: #2f2f2f } 
		.s2 { fill: #f4ae1c } 
		.s3 { opacity: 1;fill: #feaf03 } 
		.s4 { fill: #ffaf01 } 
		.s5 { fill: #ffa401 } 
		.s6 { fill: #472c09 } 
		.s7 { fill: #e9ae3d } 
	</style>
	<g id="Background">
		<path id="Path 0" class="s0" d="m310 192l5-7 5 3-5 5zm32 1l2-5 36 10v16zm151 107l-3-16 9 5zm58-1l9-12 40 22v4zm-346 55v-8l5-2 4 4zm179 251l1-3h7l-1 7z"/>
		<path id="Path 1" class="s1" d="m310 192l5 1 5-5 10 4 160 92 3 16-88 131-3 5-7 9-8-2-175-103-2-6zm70 22v-16l12 3 44 13 124 73-9 12-46-13zm29 219l97-141 94 27 20 7v156l-85 50-24 14-29 17-81 46h-3v-13-146l8-12zm-204-79l9-6 178 104v144 6h-7l-1 3-179-103z"/>
		<path id="Path 2" class="s2" d="m330 192l2-4 10 5 38 21 125 72 46 13 49 14v6l-94-27-97 141-4-2 88-131 6-11-9-5zm-120 152l2-4 175 103 8 2 7-9 4 2-8 12v146h-6v-144l-178-104z"/>
		<path id="Path 3" class="s3" d="m466 594l-13 4-40 27-18 3-18-2-28-19-17-5-16-15-32-16-4-6-16-10-12-2-29-22-14-7-16-15-5-47 1-119 25-51 22-23 21-41 13-10 13-18v-4l15-14 4-8 10-6 24 3 9 11 21 2 23 8 3 9-12-3-36-10-6-3h-6v3l-2 4-10-4-5-3-5 7-100 142 2 6-2 4-5 2v8 148l179 103 7 4 1-7v-6h6v13h3l81-46-3 18-13 9zm45-48l24-14 1 8-8 8-14 2z"/>
		<path id="Path 4" class="s4" d="m0 800v-800h261l5 5v9l4 8 4 3v21l8 7v9l8 11v13l8 7v13l8 7v21l6 5v29l-10 6-4 8-15 14v4l-13 18-13 10-21 41-22 23-25 51-1 119 5 47 16 15 14 7 29 22 12 2 16 10 4 6 32 16 16 15 17 5 28 19 18 2 18-3 40-27 13-4v4l8 7v13l8 7v21l8 7v13l8 7v23l10 9 2 13 4 3v21l8 7 4 17 4 3v31z"/>
		<path id="Path 5" class="s5" d="m312 168v-29l-6-5v-21l-8-7v-13l-8-7v-13l-8-11v-9l-8-7v-21l-4-3-4-8v-9l-5-5h539v800h-270v-31l-4-3-4-17-8-7v-21l-4-3-2-13-10-9v-23l-8-7v-13l-8-7v-21l-8-7v-13l-8-7v-4-4l13-9 3-18 29-17 3 4 14-2 8-8-1-8 85-50v-156l-20-7v-6-4l-40-22-124-73-44-13-3-9-23-8-21-2-9-11z"/>
		<path id="Path 6" class="s6" d="m332 188v-3h6l6 3-2 5z"/>
		<path id="Path 7" class="s7" d="m402 436l3-5 4 2-3 5z"/>
	</g>
</svg>